<svg xmlns="http://www.w3.org/2000/svg" id="Capa_1" data-name="Capa 1" viewBox="0 0 35.433 35.433"><defs><style>.cls-1{fill:#df8042;}</style></defs><title>Alergenos-Gluten</title><path class="cls-1" d="M17.644,1.015A16.494,16.494,0,0,0,8.47,31.2c.427-2,.968-4.107,1.657-6.267-.924-.209-2.366-1.393-1.078-7.094a25.447,25.447,0,0,0-.782-4.225A27.536,27.536,0,0,1,9.33,17.8a21.042,21.042,0,0,1,1.678,4.559q.324-.878.681-1.759c-.828-.33-1.87-1.626-.714-6.412a23.519,23.519,0,0,0-.636-3.745,24.438,24.438,0,0,1,.9,3.831,19,19,0,0,1,1.444,4.006c.3-.656.619-1.309.951-1.962-.729-.133-2.056-.992-.712-5.735a20.545,20.545,0,0,0-.406-3.411,20.827,20.827,0,0,1,.681,3.539,14.472,14.472,0,0,1,1.19,4.171c.436-.8.906-1.584,1.393-2.368-.62-.089-1.8-.779-.786-4.943a19.046,19.046,0,0,0-.462-3.07A20.546,20.546,0,0,1,15.211,7.5a11.24,11.24,0,0,1,1.194,4.035c.525-.8,1.086-1.585,1.669-2.362-.53-.121-1.534-.8-.392-4.382a19.136,19.136,0,0,0-.2-2.572,19.144,19.144,0,0,1,.394,2.649,9.553,9.553,0,0,1,.759,3.567c.505-.645,1.025-1.284,1.573-1.909l.436-.272c-.669.825-1.292,1.665-1.893,2.512a12.5,12.5,0,0,1,2.64-1.219A15.04,15.04,0,0,1,23.7,6.2a16.9,16.9,0,0,0-2.184,1.512c-2.185,3.409-3.345,2.689-3.663,2.363q-.606.913-1.164,1.839a14.811,14.811,0,0,1,2.829-1.5,17.876,17.876,0,0,1,2.546-1.759A16.268,16.268,0,0,0,19.7,10.512c-2.165,4.04-3.546,3.492-4.008,3.111-.4.715-.769,1.431-1.125,2.148a16.156,16.156,0,0,1,3.471-1.722,21.5,21.5,0,0,1,2.931-1.912,20.9,20.9,0,0,0-2.8,2.105c-2.387,4.1-3.9,3.9-4.538,3.5q-.438.978-.833,1.951l-.006.063a17.937,17.937,0,0,1,3.952-2.19A25.58,25.58,0,0,1,19.933,15.3a24,24,0,0,0-3.054,2.533c-2.491,4.634-4.194,4.493-4.928,4.077-.309.859-.588,1.71-.851,2.555a19.593,19.593,0,0,1,4.466-2.578,28,28,0,0,1,3.6-2.607,26.413,26.413,0,0,0-3.252,2.67c-2.722,5.2-4.612,5.223-5.478,4.789-.462,1.715-.833,3.378-1.132,4.969a16.279,16.279,0,0,0,3.36,1.52,24.409,24.409,0,0,1,2.293-3.484c-.583-.3-1.488-1.372.993-5.176a14.743,14.743,0,0,1,.031,3.949,23.291,23.291,0,0,1,1.876-1.864c-.407-.437-.7-1.535,1.7-4.041a17.106,17.106,0,0,0,.977-2.569,16.49,16.49,0,0,1-.782,2.593,13.309,13.309,0,0,1-.54,2.9c.491-.371,1-.731,1.552-1.072-.344-.392-.628-1.4,1.933-3.46A14.557,14.557,0,0,0,23.8,18.953a15.287,15.287,0,0,1-.967,2.106,11.019,11.019,0,0,1-.94,2.77q.8-.426,1.671-.791c-.271-.3-.671-1.2,1.957-2.874a13.52,13.52,0,0,0,1.224-1.756,13.233,13.233,0,0,1-1.1,1.815,8.279,8.279,0,0,1-1.288,2.514,18.8,18.8,0,0,1,1.922-.58.742.742,0,0,1,.4-.1c-.163-.181-.489-.806,1.359-1.846a7.231,7.231,0,0,0,.717-.932,7.092,7.092,0,0,1-.794,1.151,4.345,4.345,0,0,1-.946,1.556,19.488,19.488,0,0,1,2.5-.363,19.926,19.926,0,0,0-2.383.479,6.613,6.613,0,0,1,1.278.444,8.114,8.114,0,0,1,1.268.277,7.407,7.407,0,0,0-1.22-.2c-1.781.449-2.142,0-2.205-.279a18.9,18.9,0,0,0-2.1.79,9.9,9.9,0,0,1,2.29.6,13.973,13.973,0,0,1,2.093.344,12.392,12.392,0,0,0-2.134-.2c-2.6.854-3.268.254-3.43-.178-.525.278-1.02.577-1.5.887a11.118,11.118,0,0,1,2.727.423,13.588,13.588,0,0,1,2.371.108,15.2,15.2,0,0,0-2.46.064c-2.7,1.2-3.577.713-3.847.255-.434.331-.843.671-1.232,1.018a13.458,13.458,0,0,1,2.821.092,15.9,15.9,0,0,1,2.7-.23,15.779,15.779,0,0,0-2.631.411c-2.648,1.636-3.754,1.416-4.2,1-.519.547-.986,1.093-1.407,1.631a16.409,16.409,0,0,1,2.918-.464,18.68,18.68,0,0,1,2.814-.831,18.441,18.441,0,0,0-2.915,1.092c-2.26,2.116-3.479,2.28-4.1,2.01a22.169,22.169,0,0,0-1.322,2.349A16.449,16.449,0,0,0,34.161,17.48,16.426,16.426,0,0,0,17.644,1.015Z"></path></svg>