<svg xmlns="http://www.w3.org/2000/svg" id="Capa_1" data-name="Capa 1" viewBox="0 0 35.433 35.504"><defs><style>.cls-1{fill:#be9b3a;}</style></defs><title>Alergenos-Mostaza</title><path class="cls-1" d="M29.512,6.739,21.625,14.7,15.5,8.577l6.564-6.623A16.494,16.494,0,0,0,5.414,6.186a17.066,17.066,0,0,0,0,23.81,16.6,16.6,0,0,0,23.6,0A16.847,16.847,0,0,0,29.512,6.739Zm-14.669,4.23,1.048-1.057,4.41,4.4-1.047,1.056L17.71,13.807l-2.922,2-.388-.334,1.986-3.005ZM26.752,28.215c-.883,1.113-4.191,3-10.091,2.56-4.41-.334-6.229-.223-8.215-2.059-1.622-1.473-.824-2.764.7-3.344a3.6,3.6,0,0,1-.159-1.932,1.407,1.407,0,0,1,.714-.979,5.308,5.308,0,0,0,1.166-.935,1.806,1.806,0,0,0-.013-.734c-.022-.079-.059-.2-.1-.316a1.936,1.936,0,0,1,.224-2.071.556.556,0,0,1,.1-.084,4.771,4.771,0,0,1,.844-.451c.372-.117.51-.417.664-.828a1.824,1.824,0,0,1,.248-.5.526.526,0,0,1,.829.649,2.061,2.061,0,0,0-.091.223,2.113,2.113,0,0,1-1.325,1.459,4.385,4.385,0,0,0-.522.285c-.179.233-.129.475.037,1.006.044.139.087.278.121.416a1.888,1.888,0,0,1-.247,1.665,6.359,6.359,0,0,1-1.425,1.138.443.443,0,0,0-.2.313,2.653,2.653,0,0,0,.151,1.415,5.49,5.49,0,0,1,.826-.065,27.171,27.171,0,0,1,4.026.445c4.411.779,4.08-.89,6.947-.723C24.878,24.933,28.3,26.158,26.752,28.215Z"></path><path class="cls-1" d="M22.065,29.161h0a6.055,6.055,0,0,0,2.7-1,1.893,1.893,0,0,0,1.047-1.78s.938.945-.716,2A3.268,3.268,0,0,1,22.065,29.161Z"></path></svg>