<svg xmlns="http://www.w3.org/2000/svg" id="Capa_1" data-name="Capa 1" viewBox="0 0 35.433 35.504"><defs><style>.cls-1{fill:#a4997c;}</style></defs><title>Alergenos-Sésamo</title><path class="cls-1" d="M17.69,1.259A16.493,16.493,0,1,0,34.207,17.725,16.416,16.416,0,0,0,17.69,1.259ZM16.218,2.786a.053.053,0,0,1,.054-.054,36.1,36.1,0,0,0,3,2.072.053.053,0,0,1,.055.054.116.116,0,0,0,.109-.109c.055-.055,0-.109-.054-.109-.872-.546-2.126-1.472-2.889-2.017a6.1,6.1,0,0,1,3.052.545c1.581.6,2.4,1.853,1.8,2.835s-2.126.817-3.326-.382C16.763,4.422,16,3.168,16.218,2.786Zm.109,4.689h.055A47.1,47.1,0,0,0,17.8,12a.116.116,0,0,0,.109.109h.055c.109-.054.163-.163.109-.218-.491-1.254-1.036-3.217-1.363-4.362a7.9,7.9,0,0,1,2.671,2.836c1.144,1.8.926,3.706-.382,4.2-1.362.545-2.671-.763-3-2.889C15.673,9.6,15.837,7.693,16.327,7.475ZM13.111,20.887C11.148,22.3,9.186,23.122,8.423,22.9c1.036-.981,2.343-2.29,3.215-3.271.055-.11.055-.218-.054-.273a.167.167,0,0,0-.218,0C10.494,20.4,9.131,21.705,8.1,22.686c-.327-.654.328-2.726,1.635-4.852,1.364-2.29,3.6-3.163,4.906-1.963C16,17.071,15.292,19.306,13.111,20.887Zm6.868,10.849c-1.362.927-3.162-.218-4.033-2.508-.819-2.126-1.091-4.088-.709-4.634,1.254,1.8,2.453,3.817,2.507,3.817a.118.118,0,0,0,.109.109c.055,0,.11,0,.11-.055a.134.134,0,0,0,.054-.218c0-.054-1.254-2.072-2.453-3.816.708-.055,2.289.981,3.816,2.562C21.124,28.683,21.343,30.864,19.979,31.736ZM24.831,20.4c-1.472,2.726-3.98,3.762-5.561,2.453-1.58-1.362-.872-3.979,1.581-5.833,2.4-1.8,4.8-2.89,5.506-2.454-1.526,1.855-4.415,4.689-4.415,4.689a.241.241,0,0,0,0,.272c0,.055.054.055.109.055a.2.2,0,0,0,.164-.055s2.834-2.78,4.36-4.688C26.848,15.707,26.138,18.052,24.831,20.4Z"></path></svg>