<svg xmlns="http://www.w3.org/2000/svg" id="Capa_1" data-name="Capa 1" viewBox="0 0 35.433 35.504"><defs><style>.cls-1{fill:#77144d;}</style></defs><title>Alergenos-Azufre</title><path class="cls-1" d="M17.69,1.259A16.493,16.493,0,1,0,34.207,17.725,16.415,16.415,0,0,0,17.69,1.259Zm.981,6.6H20.2l.489,1.09c.22.382.328.654.491.981.11-.382.273-.654.382-.981l.491-1.09h1.526l-1.635,2.889,1.744,3H22.159l-.544-1.036c-.218-.437-.382-.709-.546-1.09-.109.381-.272.653-.436,1.09l-.491,1.036H18.616l1.69-2.945Zm-2.617,3.162h2.289v.872H16.054ZM11.747,7.857h3.6v1.09h-2.29V10.2h2.181v1.09H13.056v1.363h2.4v1.091H11.747Zm1.09,8.723V15.489h.709v1.036l4.2,2.453,4.145-2.4V15.489h.763V16.58l4.8,2.726v4.47a1.471,1.471,0,0,0-.655-.163,1.106,1.106,0,0,0-.6.163V20.069l-3.925-2.235L18.4,20.069V23.94a1.386,1.386,0,0,0-1.308,0V20.069l-3.87-2.235L9.894,19.688A1.2,1.2,0,0,0,9.24,18.6Zm12.048,7.251V20.614h.709v3.6l-3.161,1.853-.327-.654Zm-5.4-2.89-.328-.654,2.945-1.69.327.6Zm-3.707,2.89V20.614h.763v3.6l-3.162,1.853L13,25.412Zm-5.343-2.89-.381-.654L13,18.6l.382.6ZM8.04,19.36v-.054a1.135,1.135,0,0,1,.545-.328h.056a.7.7,0,0,1,.708.764.687.687,0,0,1-.708.709.672.672,0,0,1-.6-.382.78.78,0,0,1-.108-.327A.793.793,0,0,1,8.04,19.36Zm1.254,1.418v3a.951.951,0,0,0-.653-.217,1.1,1.1,0,0,0-.6.163v-2.89a1.1,1.1,0,0,0,.6.164A1.171,1.171,0,0,0,9.294,20.778ZM8.04,25.194a.728.728,0,0,1,0-.763.628.628,0,0,1,.6-.327.707.707,0,0,1,.653.436v.054a.327.327,0,0,1,.055.218.721.721,0,0,1-.708.709A.628.628,0,0,1,8.04,25.194Zm5.506,2.89V29.12h-.709V28.084L9.13,25.957a1.263,1.263,0,0,0,.764-1.036L13.22,26.83l3.27-1.909v.109a1.241,1.241,0,0,0,.545,1.036Zm4.307-2.345h-.218a.709.709,0,0,1-.6-.709.687.687,0,0,1,.708-.708.721.721,0,0,1,.709.708A.753.753,0,0,1,17.853,25.739Zm4.8,2.345V29.12h-.763V28.084L18.4,26.066A1.168,1.168,0,0,0,19,25.03v-.109l3.272,1.909,3.27-1.854a1.28,1.28,0,0,0,.709,1.036Zm4.8-2.944a.71.71,0,0,1-.655.435.721.721,0,0,1-.709-.708v-.273l.11-.109a.626.626,0,0,1,.6-.327.711.711,0,0,1,.655.436.414.414,0,0,1,.054.273A.5.5,0,0,1,27.448,25.14Z"></path></svg>