<svg xmlns="http://www.w3.org/2000/svg" id="Capa_1" data-name="Capa 1" viewBox="0 0 35.433 35.504"><defs><style>.cls-1{fill:#f7de5c;}</style></defs><title>Alergenos-Altramuces</title><path class="cls-1" d="M23.108,15.945c-3.192-.241-4.338-2.229-4.578-3.554a5.228,5.228,0,0,0-.121,1.024c0,2.41,2.29,3.8,4.82,3.8a4.411,4.411,0,0,0,4.518-4.4A4.174,4.174,0,0,1,23.108,15.945Z"></path><path class="cls-1" d="M9.553,20.342c-3.192-.181-3.493-1.325-3.735-2.229a3.087,3.087,0,0,0-.12.723c0,1.626,1.325,2.349,3.735,2.711,3.493.6,5.362-1.085,5.362-2.711C14.373,19.8,12.506,20.522,9.553,20.342Z"></path><path class="cls-1" d="M16.783,22.51a4.791,4.791,0,0,0,1.566,5.6c-.9-1.385-2.348-5.059,2.771-8.553C19.012,19.258,17.506,20.7,16.783,22.51Z"></path><path class="cls-1" d="M17.687,1.308A16.444,16.444,0,1,0,34.193,17.753,16.428,16.428,0,0,0,17.687,1.308ZM9.675,22.51c-3.133-.542-5.182-1.686-5.182-4.879a5.784,5.784,0,0,1,11.567,0C16.06,20.824,13.229,23.113,9.675,22.51ZM26,25.161c-1.084,2.771-4.216,5.12-6.867,4.1a5.369,5.369,0,0,1-2.892-6.987c1.084-2.771,3.493-4.037,6.2-3.012C25.1,20.342,27.084,22.33,26,25.161Zm-2.771-7.108c-3.193,0-6.025-1.988-6.025-5.18s2.53-6.867,5.723-6.867a6.522,6.522,0,0,1,6.085,6.265A5.785,5.785,0,0,1,23.229,18.053Z"></path><path class="cls-1" d="M23.771,7.03h0c.722.06,1.265-.06,1.325-.241,0-.181-.543-.361-1.265-.361-.723-.06-1.265,0-1.265.18C22.506,6.789,23.108,6.97,23.771,7.03Z"></path><path class="cls-1" d="M10.4,12.813h0c.723,0,1.265-.182,1.265-.362s-.542-.3-1.265-.3-1.264.121-1.264.3S9.675,12.813,10.4,12.813Z"></path><path class="cls-1" d="M24.012,26.787h0c-.422.543-.663,1.085-.542,1.205.18.12.6-.241,1.023-.783.423-.6.664-1.145.543-1.265C24.855,25.884,24.433,26.245,24.012,26.787Z"></path></svg>