<svg xmlns="http://www.w3.org/2000/svg" id="Capa_1" data-name="Capa 1" viewBox="0 0 35.433 35.504"><defs><style>.cls-1{fill:#68cee3;}</style></defs><title>Alergenos-Moluscos</title><path class="cls-1" d="M16.964,9.024,17.686,20.7l.723-11.677a2.941,2.941,0,0,1-.723.06A2.937,2.937,0,0,1,16.964,9.024Z"></path><path class="cls-1" d="M12.088,10.529a1.2,1.2,0,0,1-.481.241l3.973,9.57L12.87,9.987A2.26,2.26,0,0,1,12.088,10.529Z"></path><path class="cls-1" d="M8.3,13.659a2.336,2.336,0,0,1-.9.662l6.261,6.38L8.477,13.479Z"></path><path class="cls-1" d="M23.285,10.529a2.273,2.273,0,0,1-.783-.542L19.793,20.34l3.973-9.57A1.2,1.2,0,0,1,23.285,10.529Z"></path><path class="cls-1" d="M17.686,1.32A16.432,16.432,0,1,0,34.181,17.752,16.417,16.417,0,0,0,17.686,1.32ZM28.945,19.438a15.749,15.749,0,0,1-2.409,2.467v.06a30.522,30.522,0,0,1-2.589,2.167,13.08,13.08,0,0,1-1.143.783l.782,1.264a1.317,1.317,0,0,1,.12,1.324,1.418,1.418,0,0,1-1.263.662H12.931a1.417,1.417,0,0,1-1.264-.662,1.321,1.321,0,0,1,.12-1.324l.783-1.264a12.8,12.8,0,0,1-1.144-.783c-.9-.661-1.806-1.505-2.588-2.167v-.06a15.247,15.247,0,0,1-2.349-2.467,4.36,4.36,0,0,1-.962-3.191,1.471,1.471,0,0,0-.061-.481,2.352,2.352,0,0,1,.061-1.686,2.571,2.571,0,0,1,1.084-.9,2.2,2.2,0,0,0,.662-.361c.12-.181.24-.483.422-.844a3.677,3.677,0,0,1,1.022-1.624A3.428,3.428,0,0,1,10.4,9.686a4.088,4.088,0,0,0,1.023-.3,4.753,4.753,0,0,0,.9-.721,4.563,4.563,0,0,1,1.926-1.2,4.241,4.241,0,0,1,2.288.121,7.521,7.521,0,0,0,1.143.18,9.8,9.8,0,0,0,1.2-.18,4.02,4.02,0,0,1,2.226-.121,4.56,4.56,0,0,1,1.927,1.205,4.753,4.753,0,0,0,.9.721,4.644,4.644,0,0,0,1.083.3,3.462,3.462,0,0,1,1.627.663,3.87,3.87,0,0,1,1.082,1.624,3.9,3.9,0,0,0,.362.844,3.3,3.3,0,0,0,.662.361,2.258,2.258,0,0,1,1.084.9,2.079,2.079,0,0,1,.06,1.686c0,.18-.06.36-.06.481A4.6,4.6,0,0,1,28.945,19.438Z"></path><path class="cls-1" d="M26.9,13.479,21.719,20.7l6.261-6.38a2.344,2.344,0,0,1-.9-.662Z"></path></svg>