<svg xmlns="http://www.w3.org/2000/svg" id="Capa_1" data-name="Capa 1" viewBox="0 0 35.433 35.575"><defs><style>.cls-1{fill:#00adee;}</style></defs><title>Alergenos-Crustáceos</title><path class="cls-1" d="M17.689,1.3A16.493,16.493,0,1,0,34.172,17.76,16.4,16.4,0,0,0,17.689,1.3Zm9.194,13.63c0-.109.163-.436.218-.818.108-.327.162-.708.217-.708.109,0,.163.381.218.763a2.554,2.554,0,0,1-.109.872c0,.218-.218.327-.326.273A.311.311,0,0,1,26.883,14.925Zm.109.546c.163.054.217.108.217.436a3.673,3.673,0,0,1-.924,1.69.445.445,0,0,1-.654.054.5.5,0,0,1,0-.654,12.772,12.772,0,0,0,.98-1.363C26.774,15.416,26.883,15.416,26.992,15.471ZM20.464,7.783a6.566,6.566,0,0,0,2.448,2.835c.109.054.272.163.489.273a8.993,8.993,0,0,0-1.2-4.253c.707.436,1.305.818,1.577,1.036a7.044,7.044,0,0,1,1.8,2.562,6.744,6.744,0,0,1,.164,3.981,1.983,1.983,0,0,1-.817,1.254,7.521,7.521,0,0,1-1.74,2.507.054.054,0,0,0-.055.055,2.236,2.236,0,0,0-.272-.382,3.805,3.805,0,0,1-.38-.818c-.109-.272-.164-.491-.272-.708.38-.328.816-.654,1.2-.928-.489-.545-.38-1.58-.272-2.453-.054,0-.054-.054-.108-.054C22.966,12.635,19.43,10.781,20.464,7.783ZM9.856,10.236a7.056,7.056,0,0,1,1.8-2.562c.272-.218.87-.6,1.523-1.036a9.582,9.582,0,0,0-1.142,4.253,4.69,4.69,0,0,1,.489-.273A6.566,6.566,0,0,0,14.97,7.783c.979,3-2.5,4.852-2.557,4.907-.055,0-.109.054-.164.054a3.085,3.085,0,0,1-.217,2.453c.326.274.816.6,1.2.928-.109.217-.163.436-.272.708a4.164,4.164,0,0,1-.327.818c-.163.109-.217.272-.326.382,0-.055-.055-.055-.109-.055a7.466,7.466,0,0,1-1.686-2.507,1.793,1.793,0,0,1-.817-1.254A6.325,6.325,0,0,1,9.856,10.236ZM9.8,17a.579.579,0,0,1-.055.654.448.448,0,0,1-.653-.054,3.946,3.946,0,0,1-.87-1.69c-.055-.328.054-.382.163-.436s.217-.055.435.163A12.93,12.93,0,0,0,9.8,17ZM8.061,13.4c.108,0,.163.381.272.708a3.239,3.239,0,0,0,.217.818.366.366,0,0,1-.217.382c-.164.054-.327-.055-.381-.273,0-.055-.055-.49-.055-.872A1.363,1.363,0,0,1,8.061,13.4Zm-1.2,4.8a2.177,2.177,0,0,1-.163-.872c0-.437.054-.818.163-.763.054,0,.109.326.218.654a2.652,2.652,0,0,0,.326.763.281.281,0,0,1-.163.381C7.082,18.469,6.918,18.414,6.864,18.2Zm.87,1.363a1.17,1.17,0,0,1-.435-.545c-.163-.327-.054-.381.054-.436.109-.109.218-.109.436.055A8.689,8.689,0,0,0,9.2,19.5c.108.109.217.219.217.328a.768.768,0,0,1-.109.327.386.386,0,0,1-.327.164.49.49,0,0,1-.271-.054A3.516,3.516,0,0,1,7.734,19.559Zm1.8,7.688a2.434,2.434,0,0,1-.436-.872c-.054-.219.054-.382.218-.382a.239.239,0,0,1,.326.218c.054.055.109.435.273.763.108.381.325.654.271.709C10.128,27.792,9.8,27.574,9.53,27.247Zm.706-3.381a12.238,12.238,0,0,0-.652,1.582c-.054.273-.163.327-.326.327-.11,0-.218,0-.327-.382a3.114,3.114,0,0,1,.49-1.963.455.455,0,0,1,.653-.163A.463.463,0,0,1,10.236,23.866Zm-.054-.762c-.163-.164-.326-.273-.163-.655a2.471,2.471,0,0,1,.653-.818,3.462,3.462,0,0,1,1.36-.709,4.274,4.274,0,0,1-2.23-.109c-.381-.164-.327-.381-.272-.544a.582.582,0,0,1,.381-.492c.271-.054.815-.108,1.958-.273-2.285-.817-2.285-1.526-1.958-1.689.38-.327.217-.437,2.393.273a1.335,1.335,0,0,0-.218.6,1.884,1.884,0,0,0-.054.6,8.683,8.683,0,0,0,.761,3.544,2.83,2.83,0,0,0,.707.709,3,3,0,0,0-.6.326,1.9,1.9,0,0,0-.489.382.449.449,0,0,1-.6.109c-.217-.054-.38-.109-.38-.545a2.641,2.641,0,0,1,.489-.981,2.11,2.11,0,0,1,.544-.436,6.614,6.614,0,0,0-1.632.763A.548.548,0,0,1,10.182,23.1Zm2.448,3.652c-.054.164-.163.272-.489.164a1.419,1.419,0,0,1-.653-.491,1.989,1.989,0,0,1-.326-1.472.475.475,0,0,1,.544-.382c.272.11.435.327.38.545a1.433,1.433,0,0,0,.435,1.255C12.685,26.538,12.685,26.646,12.63,26.756Zm1.306.6a3.258,3.258,0,0,1-.925-.108.312.312,0,0,1-.218-.382.3.3,0,0,1,.381-.164,6.35,6.35,0,0,1,.816.219c.381.108.762.163.762.272A1.46,1.46,0,0,1,13.936,27.355Zm3.808-2.616c-.707.055-1.578,0-1.795,0a10.4,10.4,0,0,1-2.068-1.255,4.6,4.6,0,0,1-.87-.762,8.8,8.8,0,0,1-.707-3.435,1.69,1.69,0,0,1,.054-.545,1.873,1.873,0,0,1,.435-.873,6.224,6.224,0,0,0,.707-1.581,2.623,2.623,0,0,1,.871-1.254c.217-.163.6-.272.816-.436a1.015,1.015,0,0,0,.326-.381c.055-.274.055-.655.49-.6.218,0,.435.218.6.272.271.163.6.054.87.054.054,0,.109,0,.109.055a.2.2,0,0,1,.163.054c0-.054.054-.054.108-.054.055-.055.055-.055.109-.055a1.819,1.819,0,0,0,.925-.054c.109-.054.381-.272.544-.272.49-.055.435.326.49.6a1.019,1.019,0,0,0,.327.381c.271.164.6.273.87.436a2.962,2.962,0,0,1,.816,1.254,9.154,9.154,0,0,0,.707,1.581,2.856,2.856,0,0,1,.489.873v.545a8.8,8.8,0,0,1-.707,3.435,4.6,4.6,0,0,1-.87.762,9,9,0,0,1-2.068,1.255C19.322,24.739,18.4,24.794,17.744,24.739Zm4.624,2.508a2.716,2.716,0,0,1-.925.108,1.365,1.365,0,0,1-.762-.163c0-.109.381-.164.708-.272.38-.109.761-.219.816-.219a.279.279,0,0,1,.38.164C22.694,27.028,22.585,27.192,22.368,27.247Zm1.523-.818a1.2,1.2,0,0,1-.653.491c-.326.108-.381,0-.435-.164-.055-.11-.055-.218.109-.381a1.43,1.43,0,0,0,.435-1.255.518.518,0,0,1,.326-.545.427.427,0,0,1,.544.382A1.773,1.773,0,0,1,23.891,26.429Zm.708-3.271a6.348,6.348,0,0,0-1.687-.763,1.135,1.135,0,0,1,.544.436,1.6,1.6,0,0,1,.489.981c.055.436-.109.491-.326.545a.442.442,0,0,1-.6-.109,3.945,3.945,0,0,0-.49-.382,2.941,2.941,0,0,0-.6-.326,3.346,3.346,0,0,0,.761-.709,9.684,9.684,0,0,0,.762-3.544c0-.273-.055-.436-.055-.6a1.2,1.2,0,0,0-.272-.6c2.176-.71,2.014-.6,2.393-.273.327.163.327.872-1.957,1.689,1.088.165,1.686.219,1.957.273a.584.584,0,0,1,.382.492c.054.163.108.38-.273.544a4.505,4.505,0,0,1-2.284.109,4.249,4.249,0,0,1,1.414.709,1.684,1.684,0,0,1,.6.818c.162.382,0,.491-.163.655A.479.479,0,0,1,24.6,23.158Zm1.74,3.217a2.443,2.443,0,0,1-.435.872c-.273.327-.653.545-.707.436-.054-.055.163-.328.325-.709a2.354,2.354,0,0,0,.219-.763.308.308,0,0,1,.38-.218C26.285,25.993,26.394,26.156,26.339,26.375Zm.109-.982c-.054.382-.218.382-.327.382s-.217-.054-.326-.327a9.467,9.467,0,0,0-.6-1.582.462.462,0,0,1,.815-.436A2.93,2.93,0,0,1,26.448,25.393Zm1.686-6.379a1.692,1.692,0,0,1-.435.545,3.5,3.5,0,0,1-.98.71.591.591,0,0,1-.271.054.328.328,0,0,1-.327-.164.768.768,0,0,1-.109-.327c0-.109.109-.219.218-.328a12.71,12.71,0,0,0,1.414-.871c.218-.164.327-.164.436-.055C28.188,18.633,28.243,18.687,28.134,19.014Zm.435-.818c-.054.218-.272.273-.381.163a.281.281,0,0,1-.163-.381,3.386,3.386,0,0,0,.272-.763c.109-.328.218-.654.272-.654.054-.055.163.326.163.763A2.177,2.177,0,0,1,28.569,18.2Z"></path></svg>