<svg xmlns="http://www.w3.org/2000/svg" id="Capa_1" data-name="Capa 1" viewBox="0 0 35.433 35.504"><defs><style>.cls-1{fill:#f7a035;}</style></defs><title>Alergenos-Huevos</title><path class="cls-1" d="M17.2,11.128h.218a.476.476,0,0,0,.49-.382,3.643,3.643,0,0,1,1.963-2.4.588.588,0,0,0,.381-.763.523.523,0,0,0-.49-.382h-.219a4.826,4.826,0,0,0-2.725,3.163.527.527,0,0,0,.055.491A.556.556,0,0,0,17.2,11.128Z"></path><path class="cls-1" d="M25.539,17.507a.646.646,0,0,0-.654.545v.109a.7.7,0,0,0,.545.545,3.5,3.5,0,0,1,2.726,1.417.6.6,0,0,0,.545.328.286.286,0,0,0,.218-.109.627.627,0,0,0,.327-.6c-.054-.054-.054-.108-.109-.164A4.6,4.6,0,0,0,25.539,17.507Z"></path><path class="cls-1" d="M17.689,1.26A16.492,16.492,0,1,0,34.207,17.724,16.414,16.414,0,0,0,17.689,1.26ZM20.033,6c2.563.381,4.089,5.125,3.871,8.5a12.018,12.018,0,0,0-2.78-.055H20.96a6.868,6.868,0,0,0-4.088,2.236A15.583,15.583,0,0,0,14.364,12C15.4,9,17.853,5.73,20.033,6ZM11.475,24.812C8.8,25.03,6.351,23.231,6.023,19.8s1.363-8.615,4.089-8.887,5.451,4.471,5.779,7.905S14.2,24.54,11.475,24.812Zm11.284.763c-3.434.382-5.724-1.525-6.051-4.252s1.472-5.18,4.906-5.562c3.38-.435,8.614,1.2,8.94,3.927C30.881,22.359,26.193,25.194,22.759,25.575Z"></path><path class="cls-1" d="M10,12.218a4.819,4.819,0,0,0-2.181,3.543.426.426,0,0,0,.109.437.555.555,0,0,0,.382.219h.109a.58.58,0,0,0,.545-.491,3.592,3.592,0,0,1,1.581-2.672.605.605,0,0,0,.272-.763A.7.7,0,0,0,10,12.218Z"></path></svg>