<svg xmlns="http://www.w3.org/2000/svg" id="Capa_1" data-name="Capa 1" viewBox="0 0 35.433 35.504"><defs><style>.cls-1{fill:#b78051;}</style></defs><title>Alergenos-Cacahuetes</title><path class="cls-1" d="M24.165,12.066a3.581,3.581,0,0,0-.1-3.282c-.134-.111-.266-.21-.4-.306-.049.73-.214,1.9-.262,2.089-.065.229-.132.45-.2.667A10.082,10.082,0,0,1,24.165,12.066Z"></path><path class="cls-1" d="M22.189,14.074a6.888,6.888,0,0,0,1.8-1.727,9.347,9.347,0,0,0-.887-.78C22.765,12.622,22.43,13.494,22.189,14.074Z"></path><path class="cls-1" d="M22.931,11.021c.054-.177.109-.353.162-.538a21.223,21.223,0,0,0,.261-2.221,6.017,6.017,0,0,0-.79-.44c-.185.62-.48,1.544-.782,2.436C22.188,10.5,22.576,10.76,22.931,11.021Z"></path><path class="cls-1" d="M20.692,7.491l.024-.069a3.74,3.74,0,0,0-1.6.443,5.242,5.242,0,0,0-.093.648,3.528,3.528,0,0,1-.074.512,11.792,11.792,0,0,1,1.166.388A16.151,16.151,0,0,0,20.692,7.491Z"></path><path class="cls-1" d="M17.927,11.418a6.784,6.784,0,0,1,1.095.4c.188-.348.371-.7.538-1.034.173-.393.313-.734.441-1.061a11.86,11.86,0,0,0-1.139-.38,9.367,9.367,0,0,1-.369.926C18.314,10.686,18.122,11.061,17.927,11.418Z"></path><path class="cls-1" d="M21.041,9.841c.153.079.3.165.453.25.3-.9.593-1.816.769-2.4a4.064,4.064,0,0,0-1.2-.267c-.007.021-.013.043-.02.064l-.032.093a16.369,16.369,0,0,1-.591,1.96A6.753,6.753,0,0,1,21.041,9.841Z"></path><path class="cls-1" d="M11.522,18.726c-.159.129-.336.254-.507.382a11.742,11.742,0,0,1,1.556.778c.353-.308.705-.614,1.027-.917.371-.372.7-.73,1.012-1.082a5.562,5.562,0,0,0-1.306-.731C12.66,17.763,12.026,18.329,11.522,18.726Z"></path><path class="cls-1" d="M17.042,14.934l.024-.031c.184-.287.381-.557.571-.818A8.929,8.929,0,0,0,18.47,12.8c.131-.224.261-.462.391-.7a6.488,6.488,0,0,0-1.1-.388c-.334.582-.674,1.1-.991,1.573-.127.19-.249.371-.363.547a6.609,6.609,0,0,1-.464.6A7.8,7.8,0,0,1,17,14.908C17.018,14.916,17.028,14.926,17.042,14.934Z"></path><path class="cls-1" d="M18.7,8.485c.011-.118.023-.248.047-.4a6.029,6.029,0,0,0-.9.713q.393.055.788.151A3.3,3.3,0,0,0,18.7,8.485Z"></path><path class="cls-1" d="M20.7,12.269c.194-.459.441-1.142.688-1.863-.167-.1-.334-.191-.5-.278a6.4,6.4,0,0,0-.584-.279c-.129.331-.271.678-.444,1.072-.171.342-.355.7-.545,1.045a3.783,3.783,0,0,1,.382.229c.265.19.517.394.758.6A5.124,5.124,0,0,0,20.7,12.269Z"></path><path class="cls-1" d="M13.559,16.916a5.8,5.8,0,0,1,1.259.72c.173-.2.352-.409.507-.61a23.385,23.385,0,0,0,1.518-1.832,6.909,6.909,0,0,0-1.13-.5C15.147,15.339,14.362,16.147,13.559,16.916Z"></path><path class="cls-1" d="M19.184,14.629a15.369,15.369,0,0,0,1.1-1.547c-.247-.215-.51-.425-.786-.622a3.5,3.5,0,0,0-.349-.21c-.132.238-.264.479-.395.7a9.225,9.225,0,0,1-.856,1.324c-.188.257-.382.523-.565.809l-.021.027a5.707,5.707,0,0,1,.961.757C18.556,15.451,18.868,15.034,19.184,14.629Z"></path><path class="cls-1" d="M13.82,21.027a22.143,22.143,0,0,0,1.9-1.728c.029-.029.07-.079.112-.13a6.95,6.95,0,0,0-.926-1.052c-.013-.011-.027-.019-.039-.03-.317.362-.658.732-1.042,1.116-.31.292-.648.585-.985.879A11.564,11.564,0,0,1,13.82,21.027Z"></path><path class="cls-1" d="M16.627,18.105c.447-.617.951-1.315,1.427-1.9.012-.02.028-.04.04-.061a5.357,5.357,0,0,0-.977-.77,23.137,23.137,0,0,1-1.542,1.863c-.151.2-.328.4-.5.6.016.014.034.025.05.039a7.341,7.341,0,0,1,.915,1.027C16.207,18.684,16.407,18.409,16.627,18.105Z"></path><path class="cls-1" d="M21.8,14.162c.246-.574.64-1.572,1.03-2.8-.356-.266-.746-.532-1.155-.781-.246.715-.488,1.381-.671,1.814a5.219,5.219,0,0,1-.3.635A11.186,11.186,0,0,1,21.8,14.162Z"></path><path class="cls-1" d="M12.708,21.9c.206-.165.411-.329.631-.494.084-.065.15-.12.228-.182A9,9,0,0,0,12.6,20.3c-.521.446-1.071.9-1.674,1.368-.218.164-.42.325-.622.487s-.4.324-.618.485a1.965,1.965,0,0,1-.3.234,4.146,4.146,0,0,0,1.43.334,5.648,5.648,0,0,0,1.246-.794C12.3,22.23,12.505,22.067,12.708,21.9Z"></path><path class="cls-1" d="M18.316,16.4c-.481.6-.982,1.289-1.424,1.9-.258.356-.477.657-.652.886a7.976,7.976,0,0,1,.719,1.362,2.465,2.465,0,0,0,.12.258c.816-1.092,1.1-2.56,1.761-3.738l-.021-.028C18.687,16.852,18.515,16.629,18.316,16.4Z"></path><path class="cls-1" d="M13.538,21.67c-.219.164-.422.327-.626.489s-.411.329-.63.494a5.106,5.106,0,0,1-.787.551,9.094,9.094,0,0,0,3.178-.633,11.65,11.65,0,0,0-.886-1.1C13.7,21.539,13.629,21.6,13.538,21.67Z"></path><path class="cls-1" d="M16.023,19.449c-.023.026-.052.062-.071.081a22.39,22.39,0,0,1-1.911,1.739,9.7,9.7,0,0,1,.927,1.168,8.78,8.78,0,0,0,1.468-.95,3.564,3.564,0,0,0,.438-.43,1.008,1.008,0,0,1-.216-.385A7.765,7.765,0,0,0,16.023,19.449Z"></path><path class="cls-1" d="M18.193,10.136a9.234,9.234,0,0,0,.351-.874,7.41,7.41,0,0,0-.989-.178,12.046,12.046,0,0,0-1.532,2.069,7.324,7.324,0,0,1,1.571.19A13.054,13.054,0,0,0,18.193,10.136Z"></path><path class="cls-1" d="M17.69,1.26A16.492,16.492,0,1,0,34.207,17.725,16.415,16.415,0,0,0,17.69,1.26ZM15.837,23.449c-2.836,1.309-8.233,2.236-9-1.09-1.144-4.743,3.544-8.178,7.032-9.05,1.091-2.727,2.509-6.434,5.07-7.034,4.906-1.2,8.123,2.127,6.487,6.488-.709,2.018-3.379,2.344-5.069,4.525C18.4,19.742,18.017,22.522,15.837,23.449Zm7.9,4.743c-.163.055-2.725.655-3.707-1.581-.981-2.29-1.144-6,1.363-5.561l1.145,4.362-.872-4.471s1.417-1.963,3.325,2.072C26.03,25.14,25.376,27.429,23.74,28.192Zm3.871-7.414a2.744,2.744,0,0,1-3.326-1.745,3.855,3.855,0,0,1,2.89-4.362c4.306-1.145,3.707,1.2,3.707,1.2l-3.925,2.235,4.033-2.017C32.953,17.725,30.009,20.014,27.611,20.778Z"></path><path class="cls-1" d="M20.53,13.31a16.228,16.228,0,0,1-1.088,1.52c-.326.418-.65.849-.937,1.288.214.241.389.466.524.652a4.067,4.067,0,0,1,.241-.353,10.151,10.151,0,0,1,2.351-1.944A10.083,10.083,0,0,0,20.53,13.31Z"></path><path class="cls-1" d="M16.135,13.655c.114-.177.237-.36.365-.551.3-.445.617-.928.93-1.466a6.4,6.4,0,0,0-1.6-.156,25.762,25.762,0,0,0-1.323,2.71,3.383,3.383,0,0,1,1.105.127A7.246,7.246,0,0,0,16.135,13.655Z"></path><path class="cls-1" d="M9.469,22.392c.218-.163.421-.326.626-.49s.409-.328.627-.492c.57-.442,1.1-.872,1.59-1.294a11.419,11.419,0,0,0-1.6-.78c-.054.039-.106.081-.159.12a12.108,12.108,0,0,0-1.739,1.433,4.509,4.509,0,0,1-.657.473c-.007.219-.014.439-.008.67a3.177,3.177,0,0,0,.9.675,1.66,1.66,0,0,0,.383-.275Z"></path><path class="cls-1" d="M13.223,16.785c.785-.746,1.569-1.542,2.145-2.184a3.516,3.516,0,0,0-1.2-.058c-.139.013-.285.021-.435.025a8.6,8.6,0,0,0-3.252,1.594l.112.018A13.641,13.641,0,0,1,13.223,16.785Z"></path><path class="cls-1" d="M11.318,18.47c.467-.367,1.046-.881,1.639-1.436a14.125,14.125,0,0,0-2.419-.531l-.381-.061a5.969,5.969,0,0,0-1.4,2.011,10.169,10.169,0,0,1,1.9.515C10.882,18.8,11.111,18.638,11.318,18.47Z"></path><path class="cls-1" d="M10.344,19.2a9.532,9.532,0,0,0-1.708-.438,8.03,8.03,0,0,0-.455,2.2,2.938,2.938,0,0,0,.4-.3A12.4,12.4,0,0,1,10.344,19.2Z"></path></svg>