<svg xmlns="http://www.w3.org/2000/svg" id="Capa_1" data-name="Capa 1" viewBox="0 0 35.433 35.504"><defs><style>.cls-1{fill:#00a551;}</style></defs><title>Alergenos-Soja</title><path class="cls-1" d="M12.456,27.157a2.192,2.192,0,0,0-1.2-.655,1.131,1.131,0,0,0-.6,0,1.2,1.2,0,0,0-.436.273.747.747,0,0,0-.272.436,1.135,1.135,0,0,0-.055.6,3.1,3.1,0,0,0,.218.654,3.64,3.64,0,0,0,.382.6,4.252,4.252,0,0,0,.6.436,1.947,1.947,0,0,0,.6.218h.6a1.172,1.172,0,0,0,.436-.273h.054a1.057,1.057,0,0,0,.273-.49.921.921,0,0,0,0-.545A2.254,2.254,0,0,0,12.456,27.157Z"></path><path class="cls-1" d="M17.362,18.27a3.43,3.43,0,0,1,.11-.382C3.135,16.2,15.181,18,17.362,18.27Z"></path><path class="cls-1" d="M27.884,14.345c-.273.054-8.722,3.052-9.159,3.271a3.391,3.391,0,0,1,.109.382C21.451,16.962,28.1,14.345,27.884,14.345Z"></path><path class="cls-1" d="M14.692,26.557a1.11,1.11,0,0,0-.6,0,.729.729,0,0,0-.49.273.789.789,0,0,0-.327.49,2.031,2.031,0,0,0-.055.6,2.379,2.379,0,0,0,.709,1.308,1.967,1.967,0,0,0,1.253.709,1.11,1.11,0,0,0,.6,0,.987.987,0,0,0,.817-.763,2.23,2.23,0,0,0,.055-.654A2.341,2.341,0,0,0,16,27.266,2.239,2.239,0,0,0,14.692,26.557Z"></path><path class="cls-1" d="M18.071,15.272c-2.78-18.319-.763-2.345-.436.054.038,0,.329-.025.439-.042Z"></path><path class="cls-1" d="M19.434,26.775a2.248,2.248,0,0,0-1.308-.6,2.027,2.027,0,0,0-.6.055.8.8,0,0,0-.49.327,1.1,1.1,0,0,0-.273.49,2.61,2.61,0,0,0,0,.655,2.415,2.415,0,0,0,.818,1.254,2.243,2.243,0,0,0,1.308.6,2.031,2.031,0,0,0,.6-.055.8.8,0,0,0,.49-.327,1.716,1.716,0,0,0,.273-.546,2.215,2.215,0,0,0,0-.6A2.413,2.413,0,0,0,19.434,26.775Z"></path><path class="cls-1" d="M22.65,25.521a2.443,2.443,0,0,0-1.362-.491,2.713,2.713,0,0,0-.655.11,1.454,1.454,0,0,0-.436.381,1.337,1.337,0,0,0-.218.491,2.677,2.677,0,0,0,.054.654,3.094,3.094,0,0,0,.873,1.2,2.436,2.436,0,0,0,1.362.491,2.769,2.769,0,0,0,.655-.109,1.47,1.47,0,0,0,.436-.382,1.34,1.34,0,0,0,.218-.49,2.689,2.689,0,0,0-.054-.655A3.1,3.1,0,0,0,22.65,25.521Z"></path><path class="cls-1" d="M17.69,1.26A16.492,16.492,0,1,0,34.207,17.725,16.415,16.415,0,0,0,17.69,1.26ZM11.747,14.181a4.621,4.621,0,0,1,3.434.327,5.5,5.5,0,0,1,2.291,3.38c.218,0,.327.054.49.054L17.8,16.58v-.055a7.341,7.341,0,0,0-.164-1.2,6.588,6.588,0,0,1-3.925-2.563c-1.581-2.617.272-6.869,2.4-8.777,2.616,1.253,5.614,4.743,4.8,7.742a6.415,6.415,0,0,1-2.835,3.544c.068,0,.052,0,0,.012a7.708,7.708,0,0,1,.106,1.187l.163,1.308a2.7,2.7,0,0,1,.382-.163A5.41,5.41,0,0,1,20.142,13.8c1.963-1.963,6.107-1.2,8.287.218-.6,2.563-3.053,6-5.833,5.943A5.719,5.719,0,0,1,18.834,18l-.491.163a8.472,8.472,0,0,1-1.307,6.051.9.9,0,0,1-.273-.109,8.387,8.387,0,0,0,1.308-5.779,2.907,2.907,0,0,0-.709-.054,5.206,5.206,0,0,1-2.943,2.562,4.842,4.842,0,0,1-3.707-.763A8.921,8.921,0,0,1,7.5,16.743,9.314,9.314,0,0,1,11.747,14.181ZM26.029,27.647a27.659,27.659,0,0,0-3.979,1.2,26.561,26.561,0,0,1-6.268,1.69,9.137,9.137,0,0,1-4.471-.382A4.682,4.682,0,0,1,9.186,28.3a5.045,5.045,0,0,1-.873-2.726,2.532,2.532,0,0,0-.054-.545,1.106,1.106,0,0,0-.055-.272,4.446,4.446,0,0,0,.764.491,12.121,12.121,0,0,0,4.578.981A28.938,28.938,0,0,0,20.633,24.7c2.4-.819,4.525-1.528,6.76.326A14.97,14.97,0,0,1,29.3,27.157a1.429,1.429,0,0,1,.272.327c0-.055.055-.055.055-.109a.543.543,0,0,1,.218.272H29.41A7.85,7.85,0,0,0,26.029,27.647Z"></path><path class="cls-1" d="M26.412,25.3a2.34,2.34,0,0,0-.545-.49,2.278,2.278,0,0,0-.6-.383,2.769,2.769,0,0,0-.654-.109,1.072,1.072,0,0,0-.6.109.851.851,0,0,0-.437.328.762.762,0,0,0-.164.491,1.177,1.177,0,0,0,.055.6,3,3,0,0,0,.272.6q.246.245.491.491a4.1,4.1,0,0,0,.654.381,2.719,2.719,0,0,0,.654.109,1.933,1.933,0,0,0,.6-.109,1.121,1.121,0,0,0,.437-.327.877.877,0,0,0,.163-.491,1.122,1.122,0,0,0-.054-.6A2.024,2.024,0,0,0,26.412,25.3Z"></path></svg>