<svg xmlns="http://www.w3.org/2000/svg" id="Capa_1" data-name="Capa 1" viewBox="0 0 35.433 35.504"><defs><style>.cls-1{fill:#6d4325;}.cls-2{fill:none;}</style></defs><title>Alergenos-Lácteos</title><path class="cls-1" d="M16.544,11.073c-.327,0-.762,0-.817.218-.164.49.218,1.854.109,2.453A15.844,15.844,0,0,1,14.691,16.2a10.965,10.965,0,0,0-.873,3.108v.109a.244.244,0,0,0,.218.163c.11,0,.219-.054.219-.109.381-.981.818-2.126,1.308-3.217a11.766,11.766,0,0,0,1.2-2.344C16.817,13.581,17.2,11.073,16.544,11.073Z"></path><path class="cls-1" d="M14.636,12.546c0-.11-.054-.165-.163-.219a.241.241,0,0,0-.272,0c-2.345.981-3.162,3.108-2.345,5.616a11.3,11.3,0,0,0,.709,1.581,11.767,11.767,0,0,1,1.962-5.288A2.944,2.944,0,0,0,14.636,12.546Z"></path><path class="cls-1" d="M17.689,1.26A16.492,16.492,0,1,0,34.207,17.724,16.414,16.414,0,0,0,17.689,1.26ZM22.7,27.429a1.979,1.979,0,0,1-1.362.709,21.455,21.455,0,0,1-2.671.109,21.011,21.011,0,0,1-2.617-.109,1.876,1.876,0,0,1-1.363-.709c-1.363-1.8-2.235-3-2.235-5.942v-.109a10.351,10.351,0,0,1-1.091-1.963,6.506,6.506,0,0,1-.654-1.8,4.51,4.51,0,0,1-.217-1.689c.054-2.509,1.09-4.145,3.6-4.907a3.485,3.485,0,0,1-.273-.654,2.059,2.059,0,0,1-.217-.873,1.15,1.15,0,0,1,.109-.327c.436-.818,3.162-1.036,4.524-.926a1.712,1.712,0,0,1,.6.054c.109.054-.218.109-.927.163a8.243,8.243,0,0,0-2.781.436c-.108,0-.217.109-.38.164a.2.2,0,0,0-.055.164c0,.109.055.163.109.163a4.39,4.39,0,0,0,1.527.164,7.319,7.319,0,0,0,1.417-.491c.708-.273,1.472-.709,2.235-.927,1.144-.382,3.107-1.254,4.143-.164a.925.925,0,0,1,.218.764c-.109.763-1.472,1.091-1.69,1.308a3.22,3.22,0,0,0-.328,3.544,11.962,11.962,0,0,1,2.617,7.906C24.939,24.43,24.068,25.63,22.7,27.429Z"></path><polyline class="cls-2" points="10.439 7.474 10.439 28.683 25.376 28.683 25.376 7.474"></polyline></svg>