<svg xmlns="http://www.w3.org/2000/svg" id="Capa_1" data-name="Capa 1" viewBox="0 0 35.433 35.504"><defs><style>.cls-1{fill:#7fcb28;}.cls-2{fill:none;stroke:#fefefe;stroke-linecap:round;stroke-linejoin:round;stroke-width:0.327px;}</style></defs><title>Alergenos-Apio</title><path class="cls-1" d="M20.524,14.617a9.827,9.827,0,0,1-.109-1.254c0-.436-.273-.273-.382-.382-.054-.109-.054-1.362-.108-1.581a2.424,2.424,0,0,0-.272,1.2,15.355,15.355,0,0,1,0,2.235h.054v.491l.218,3.489c-.054,1.418-.054,2.944,0,4.2.108,1.691.217,3.053.272,4.035a2.458,2.458,0,0,1-.055.927c.055,0,.164-.11.273-.219.546-.49.546-2.671.218-7.032C20.633,20.724,20.524,15.925,20.524,14.617Z"></path><path class="cls-1" d="M19.434,16.471,19.38,15h-.055a2.357,2.357,0,0,0-.382-1.091c-.381-.545-1.689-2.617-1.472-2.017.218.763-1.2-.055-1.2-.055a3.585,3.585,0,0,1,1.472,2.4,3.618,3.618,0,0,0,.055.927h-.055l-.218,2.4v.709a34.025,34.025,0,0,1-.49,5.289,31.783,31.783,0,0,0-.11,3.652c.164,1.418,1.254,2.181,2.181,1.418.926-.709.49-2.89.218-8.287C19.325,20.342,19.38,18.107,19.434,16.471Z"></path><path class="cls-1" d="M17.2,18.27l.109-3.217a2.828,2.828,0,0,0-1.091-1.635,2.129,2.129,0,0,0,.11.327,1.35,1.35,0,0,1,.272.6,1.85,1.85,0,0,1-.054.872,25.7,25.7,0,0,1,.109,3.926c-.109.872-.163,1.745-.272,2.508-.219,2.617-.437,4.744-.055,5.67v-.163c-.055-2.835.545-4.907.872-7.524A11.259,11.259,0,0,0,17.2,18.27Z"></path><path class="cls-1" d="M17.689,1.259A16.493,16.493,0,1,0,34.207,17.725,16.416,16.416,0,0,0,17.689,1.259Zm6.27,7.415a.836.836,0,0,1,.382.981c-.218.655-1.691.382-1.472-.109A.853.853,0,0,0,22.6,8.511C22.759,8.62,23.686,8.511,23.959,8.674ZM15.782,7.529a.661.661,0,0,1,.545.164c.164.109.327.272.545.218.382,0,.546-.273.709-.491a.924.924,0,0,1,.762-.491.411.411,0,0,1,.219.055c.654.164.763.382,1.471.055.981-.382,1.637.6,1.909,1.254a2.913,2.913,0,0,0-1.8.218c-.435.163-.217.654-.109.981-.708-.218-2.725-1.581-3-.272-.055.163-.055,1.145-.437,1.2-.545.054-1.144-.709-1.472-.981C16.272,9.165,14.527,7.693,15.782,7.529Zm-3.6,2.726c.872-.163.382-.872.982-1.09a.682.682,0,0,1,.326-.055,1.365,1.365,0,0,1,.709.219c.326.272-.273.817-.382,1.09-.108.437.109.926-.382,1.2a9.219,9.219,0,0,1-1.144.327A.868.868,0,0,0,12.51,10.8C12.456,10.691,11.911,10.31,12.184,10.255ZM22.6,13.2c-.817.654,0,.382-.708,1.09-.491.491-.217.491-.655.381-.108-.054-.108-.109-.218-.109,0,1.255.164,3.762.056,6.325-.056,2.562.817,5.452-.437,7.088-.272.218-.436.381-.6.381a2.078,2.078,0,0,1-.817.981c.055.219-1.635.11-1.581,0a2.122,2.122,0,0,1-1.2-1.417h-.054c-.873-.709-.819-2.89-.491-6.27.054-.818.163-1.636.272-2.508a37.624,37.624,0,0,0-.109-3.98c-.491-.109.491-.927-.762-1.036-.491-.055-.491-.708-.982-.817a12.354,12.354,0,0,1-2.507-.818,7.022,7.022,0,0,0,2.125-.709c.382-.273.328-.6.382-.926a2.639,2.639,0,0,1,.436-1.146c.491.327,1.363,1.417,2.126,1.036.436-.218.436-.872.49-1.2.164-.654.981-.381,1.745-.054.764.273,1.472.6,1.363,0-.055-.654-.055-.818.818-.872h.272c.491,0,1.09.054.982.545s-.273.927.436,1.145a2.25,2.25,0,0,0,1.58-.109c-.272.709-1.58,1.526,0,1.69h.11C24.178,12.545,23.25,12.709,22.6,13.2Z"></path><path class="cls-2" d="M17.526,16.307h0s.546,5.234.709,7.633a24.91,24.91,0,0,1,0,2.944"></path></svg>